# xmcd
# Track frame offsets:
# 150
# 19299
# 34777
# 51937
# 68882
# 83661
# 100681
# 118493
# 137122
# 156662
# 169935
# 183321
# 199438
# 221771
# 237288
#
# Disc length: 3384 seconds
# Revision: 0
# Processed by: cddbd v1.5.2PL0 Copyright (c) Steve Scherf et al.
# Submitted via: VisiTrax 2.11.2.271 - For more info visit www.synapsa.com
#
DISCID=e30d360f
DTITLE=Martina McBride - 11
DYEAR=2011
DGENRE=
TTITLE0=One Night
TTITLE1=Always Be This Way
TTITLE2=I´m Gonna Love You Through It
TTITLE3=Marry Me
TTITLE4=Broken Umbrella
TTITLE5=You Can Get Your Lovin´Right Here
TTITLE6=Whatcha Gonna Do
TTITLE7=Teenage Daughters
TTITLE8=Summer Of Love
TTITLE9=When You Love A Sinner
TTITLE10=Long Distance Lullaby
TTITLE11=You´re In My House Now
TTITLE12=Closing Time
TTITLE13=Ask The Boy
TTITLE14=I Give it To You
EXTD=
EXTT0=
EXTT1=
EXTT2=
EXTT3=
EXTT4=
EXTT5=
EXTT6=
EXTT7=
EXTT8=
EXTT9=
EXTT10=
EXTT11=
EXTT12=
EXTT13=
EXTT14=
PLAYORDER=
